<svg xmlns="http://www.w3.org/2000/svg" xmlns:xlink="http://www.w3.org/1999/xlink" viewBox="0 0 328.45 388.69"><defs><style>.cls-1{fill:none;}.cls-2{clip-path:url(#clip-path);}.cls-3{fill:#fff;}</style><clipPath id="clip-path"><rect class="cls-1" x="53.2" y="-1705.81" width="1920" height="3240"/></clipPath></defs><title>circle</title><g id="小物件2"><g class="cls-2"><path class="cls-3" d="M107.32,105.23,146.35.39Q140.11,0,133.76,0A194,194,0,0,0,1.19,52.11v83.82l42.68,33.85A93.44,93.44,0,0,1,107.32,105.23Z"/><path class="cls-3" d="M191.85,267.63a94.75,94.75,0,0,1-10,6.94l12.83,3.2Z"/><path class="cls-3" d="M328.45,194.67a196.52,196.52,0,0,0-2-28.25L221.12,162a93.33,93.33,0,0,1-13.4,89.49l8.86,31.78,79,19.73A193.8,193.8,0,0,0,328.45,194.67Z"/><path class="cls-3" d="M133.76,101.42a93.14,93.14,0,0,1,76.88,40.47l111.83,4.72a194.91,194.91,0,0,0-156-143.89l-36.78,98.79Q131.69,101.42,133.76,101.42Z"/><path class="cls-3" d="M40.51,194.67c0-.83,0-1.65,0-2.48L1.19,161v68.44l52.54,13.13A92.8,92.8,0,0,1,40.51,194.67Z"/><path class="cls-3" d="M102.57,282.58,9.38,344.45a194.85,194.85,0,0,0,210.79,24.73l-25.49-91.41-12.83-3.2a93.37,93.37,0,0,1-79.28,8Z"/><path class="cls-3" d="M295.54,303l-79-19.73,21.2,76A195.8,195.8,0,0,0,295.54,303Z"/><path class="cls-3" d="M82.32,272.46a93.8,93.8,0,0,1-28.59-29.91L1.19,229.42v96.91Z"/></g></g></svg>