<svg xmlns="http://www.w3.org/2000/svg" xmlns:xlink="http://www.w3.org/1999/xlink" viewBox="0 0 327.49 390"><defs><style>.cls-1{fill:none;}.cls-2{clip-path:url(#clip-path);}.cls-3{fill:#fff;}</style><clipPath id="clip-path"><rect class="cls-1" x="-27.88" y="-1801.72" width="1920" height="3240"/></clipPath></defs><title>circle</title><g id="小物件2"><g class="cls-2"><path class="cls-3" d="M106.36,105.58,145.39.74Q139.15.34,132.8.33A194,194,0,0,0,.23,52.46v83.82l42.69,33.85A93.41,93.41,0,0,1,106.36,105.58Z"/><path class="cls-3" d="M327.49,195a196.52,196.52,0,0,0-2-28.25l-105.29-4.44a93.33,93.33,0,0,1-13.4,89.49l8.86,31.78,79,19.73A193.8,193.8,0,0,0,327.49,195Z"/><path class="cls-3" d="M132.8,101.77a93.14,93.14,0,0,1,76.88,40.47L321.51,147a194.91,194.91,0,0,0-156-143.89l-36.78,98.79C130.06,101.81,131.43,101.77,132.8,101.77Z"/><path class="cls-3" d="M39.55,195c0-.83,0-1.65,0-2.48L.23,161.33v68.44L52.78,242.9A92.71,92.71,0,0,1,39.55,195Z"/><path class="cls-3" d="M101.62,282.93,8.43,344.8a194.83,194.83,0,0,0,210.78,24.73l-25.49-91.41-12.83-3.2a93.35,93.35,0,0,1-79.27,8Z"/><path class="cls-3" d="M294.58,303.33l-79-19.73,21.2,76A195.68,195.68,0,0,0,294.58,303.33Z"/><path class="cls-3" d="M81.36,272.81A93.77,93.77,0,0,1,52.78,242.9L.23,229.77v96.91Z"/></g></g></svg>