<svg xmlns="http://www.w3.org/2000/svg" viewBox="0 0 91.17 56.44"><defs><style>.cls-1{fill:none;}.cls-1,.cls-2,.cls-3,.cls-4{stroke:#40210f;stroke-miterlimit:10;stroke-width:1.85px;}.cls-2{fill:#fff;}.cls-3{fill:#2ca6e0;}.cls-4{fill:#c30d23;}</style></defs><title>nav_icon</title><g id="導覽列"><g id="_群組_" data-name="&lt;群組&gt;"><g id="_群組_2" data-name="&lt;群組&gt;"><path id="_路徑_" data-name="&lt;路徑&gt;" class="cls-1" d="M29.64,40.49h0a5.86,5.86,0,0,1,0,5.87h0a5.85,5.85,0,0,1-5.08,2.94h0a5.85,5.85,0,0,1-5.08-2.94h0a5.86,5.86,0,0,1,0-5.87h0a5.84,5.84,0,0,1,5.08-2.93h0A5.84,5.84,0,0,1,29.64,40.49Z"/><g id="_群組_3" data-name="&lt;群組&gt;"><path id="_路徑_2" data-name="&lt;路徑&gt;" class="cls-2" d="M1.35,43.22S11.74,30.87,24.56,30.87,47.77,43.22,47.77,43.22,37.38,55.58,24.56,55.58,1.35,43.22,1.35,43.22Z"/><path id="_路徑_3" data-name="&lt;路徑&gt;" class="cls-3" d="M12.2,43.22A12.36,12.36,0,1,0,29.79,32V6.18A5.24,5.24,0,0,0,24.56.94h0a5.24,5.24,0,0,0-5.23,5.24V32A12.35,12.35,0,0,0,12.2,43.22Z"/><line id="_路徑_4" data-name="&lt;路徑&gt;" class="cls-2" x1="29.79" y1="27.35" x2="25.17" y2="27.35"/><line id="_路徑_5" data-name="&lt;路徑&gt;" class="cls-2" x1="29.79" y1="22.4" x2="25.17" y2="22.4"/><line id="_路徑_6" data-name="&lt;路徑&gt;" class="cls-2" x1="29.79" y1="17.44" x2="25.17" y2="17.44"/><line id="_路徑_7" data-name="&lt;路徑&gt;" class="cls-2" x1="29.79" y1="12.49" x2="25.17" y2="12.49"/><line id="_路徑_8" data-name="&lt;路徑&gt;" class="cls-2" x1="29.79" y1="7.54" x2="25.17" y2="7.54"/></g><path id="_路徑_9" data-name="&lt;路徑&gt;" class="cls-2" d="M29.64,40.29h0a5.86,5.86,0,0,1,0,5.87h0a5.84,5.84,0,0,1-5.08,2.93h0a5.84,5.84,0,0,1-5.08-2.93h0a5.86,5.86,0,0,1,0-5.87h0a5.85,5.85,0,0,1,5.08-2.94h0A5.85,5.85,0,0,1,29.64,40.29Z"/><line id="_路徑_10" data-name="&lt;路徑&gt;" class="cls-1" x1="18.69" y1="43.22" x2="12.2" y2="43.22"/></g><g id="_群組_4" data-name="&lt;群組&gt;"><path id="_路徑_11" data-name="&lt;路徑&gt;" class="cls-2" d="M90,13.3S79.57,25.66,66.76,25.66,43.55,13.3,43.55,13.3,53.94.94,66.76.94,90,13.3,90,13.3Z"/><path id="_路徑_12" data-name="&lt;路徑&gt;" class="cls-4" d="M79.11,13.3A12.36,12.36,0,1,0,61.52,24.5V50.35a5.23,5.23,0,0,0,5.24,5.23h0A5.23,5.23,0,0,0,72,50.35V24.5A12.36,12.36,0,0,0,79.11,13.3Z"/><line id="_路徑_13" data-name="&lt;路徑&gt;" class="cls-2" x1="61.52" y1="29.17" x2="66.15" y2="29.17"/><line id="_路徑_14" data-name="&lt;路徑&gt;" class="cls-2" x1="61.52" y1="34.13" x2="66.15" y2="34.13"/><line id="_路徑_15" data-name="&lt;路徑&gt;" class="cls-2" x1="61.52" y1="39.08" x2="66.15" y2="39.08"/><line id="_路徑_16" data-name="&lt;路徑&gt;" class="cls-2" x1="61.52" y1="44.03" x2="66.15" y2="44.03"/><line id="_路徑_17" data-name="&lt;路徑&gt;" class="cls-2" x1="61.52" y1="48.99" x2="66.15" y2="48.99"/><path id="_路徑_18" data-name="&lt;路徑&gt;" class="cls-2" d="M71.84,10.37h0a5.86,5.86,0,0,1,0,5.87h0a5.88,5.88,0,0,1-5.08,2.93h0a5.89,5.89,0,0,1-5.09-2.93h0a5.86,5.86,0,0,1,0-5.87h0a5.88,5.88,0,0,1,5.09-2.94h0A5.87,5.87,0,0,1,71.84,10.37Z"/><line id="_路徑_19" data-name="&lt;路徑&gt;" class="cls-1" x1="74.87" y1="22.62" x2="68.76" y2="18.82"/><line id="_路徑_20" data-name="&lt;路徑&gt;" class="cls-1" x1="78.12" y1="8.45" x2="72.62" y2="13.09"/><line id="_路徑_21" data-name="&lt;路徑&gt;" class="cls-1" x1="65.65" y1="0.99" x2="68.36" y2="7.66"/><line id="_路徑_22" data-name="&lt;路徑&gt;" class="cls-1" x1="54.7" y1="10.56" x2="61.88" y2="10.03"/><line id="_路徑_23" data-name="&lt;路徑&gt;" class="cls-1" x1="60.44" y1="23.92" x2="62.14" y2="16.93"/></g></g></g></svg>