<svg xmlns="http://www.w3.org/2000/svg" xmlns:xlink="http://www.w3.org/1999/xlink" viewBox="0 0 427.19 571.92"><defs><style>.cls-1{fill:none;}.cls-2{clip-path:url(#clip-path);}.cls-3{fill:#3c9cce;}.cls-4{fill:#fff;}</style><clipPath id="clip-path"><rect class="cls-1" y="-2323.96" width="1920" height="3240"/></clipPath></defs><title>title</title><g id="小物件2"><g class="cls-2"><rect class="cls-1" x="304.28" y="132.6" width="87.34" height="28.8"/><rect class="cls-1" x="304.28" y="78.83" width="87.34" height="28.8"/><path class="cls-1" d="M331.43,186.07a121.82,121.82,0,0,1-20.74,39H359.5v-39Z"/><rect class="cls-1" x="304.28" y="25.37" width="87.34" height="28.8"/><rect class="cls-3" x="1.99" y="1.85" width="59.02" height="25.48"/><rect class="cls-3" x="86.49" y="92.83" width="29.1" height="25.48"/><rect class="cls-3" x="-23.49" y="27.32" width="25.48" height="90.98"/><rect class="cls-3" x="-23.49" y="1.85" width="25.48" height="25.48"/><rect class="cls-3" x="61.01" y="27.32" width="25.48" height="65.51"/><rect class="cls-3" x="61.01" y="1.85" width="25.48" height="25.48"/><rect class="cls-3" x="61.01" y="92.83" width="25.48" height="25.48"/><path class="cls-3" d="M-19.15,138.86v25.58H70a97.18,97.18,0,0,0,3.43-25.58Z"/><path class="cls-3" d="M63.38,225a122.19,122.19,0,0,0,32.81-60.6,122.45,122.45,0,0,0,2.7-25.58H73.41A97.18,97.18,0,0,1,70,164.44a96.94,96.94,0,0,1-28.27,46.09A97.34,97.34,0,0,0,62.61,225Z"/><path class="cls-3" d="M41.71,210.53A97.57,97.57,0,0,1,24,189.05L2.23,202.25A122.44,122.44,0,0,0,20.06,225h.74A97,97,0,0,0,41.71,210.53Z"/><path class="cls-3" d="M62.61,225a97.34,97.34,0,0,1-20.9-14.51A97,97,0,0,1,20.8,225Z"/><rect class="cls-3" x="304.28" y="107.63" width="87.34" height="24.97"/><path class="cls-3" d="M333.22,179.86c-.54,2.09-1.15,4.16-1.79,6.21H359.5V161.73H385v24.34h27.79v-.18H391.63V161.4H304.28v24.49H278.81v.18h25.4q1.26-3.06,2.33-6.21Z"/><polygon class="cls-3" points="304.28 25.37 391.63 25.37 391.63 0.4 412.77 0.4 412.77 0.4 278.81 0.4 278.81 0.4 304.28 0.4 304.28 25.37"/><rect class="cls-3" x="304.28" y="54.17" width="87.34" height="24.66"/><rect class="cls-3" x="359.5" y="186.07" width="25.48" height="38.97"/><rect class="cls-3" x="359.5" y="161.73" width="25.48" height="24.34"/><rect class="cls-3" x="278.81" y="132.6" width="25.48" height="28.8"/><rect class="cls-3" x="278.81" y="78.83" width="25.48" height="28.8"/><rect class="cls-3" x="278.81" y="25.37" width="25.48" height="28.8"/><rect class="cls-3" x="278.81" y="107.63" width="25.48" height="24.97"/><rect class="cls-3" x="278.81" y="161.4" width="25.48" height="24.48"/><rect class="cls-3" x="278.81" y="0.4" width="25.48" height="24.97"/><rect class="cls-3" x="278.81" y="54.17" width="25.48" height="24.66"/><polygon class="cls-3" points="391.63 25.37 391.63 54.17 412.77 54.17 412.77 78.83 391.63 78.83 391.63 107.63 412.77 107.63 412.77 132.6 391.63 132.6 391.63 161.4 412.77 161.4 412.77 185.89 417.1 185.89 417.1 0.4 412.77 0.4 412.77 25.37 391.63 25.37"/><rect class="cls-3" x="391.63" y="107.63" width="21.15" height="24.97"/><rect class="cls-3" x="391.63" y="161.4" width="21.15" height="24.48"/><rect class="cls-3" x="391.63" y="0.4" width="21.15" height="24.97"/><rect class="cls-3" x="391.63" y="54.17" width="21.15" height="24.66"/><path class="cls-3" d="M229.1,133.15a123.1,123.1,0,0,1-25.48,19.32V225H229.1Z"/><circle class="cls-3" cx="225.79" cy="19.53" r="15.07"/><path class="cls-3" d="M163.38,46.15v27.1H236.1A96.94,96.94,0,0,0,240,46.15Z"/><path class="cls-3" d="M229.1,124.49v8.66a121.93,121.93,0,0,0,36.34-87h-3.56v27.1H236.1a97,97,0,0,1-77.44,68.53V167.5a121.45,121.45,0,0,0,45-15v-28Z"/><path class="cls-3" d="M229.1,133.15v-8.66H203.62v28A123.1,123.1,0,0,0,229.1,133.15Z"/><path class="cls-3" d="M261.88,46.15H240a96.94,96.94,0,0,1-3.86,27.1h25.78Z"/><path class="cls-3" d="M331.43,186.07H304.21A97.34,97.34,0,0,1,275,225h35.74A121.82,121.82,0,0,0,331.43,186.07Z"/><path class="cls-3" d="M333.22,179.86H306.54q-1.07,3.15-2.33,6.21h27.22C332.07,184,332.68,182,333.22,179.86Z"/><path class="cls-3" d="M3.85,170.68a10.62,10.62,0,0,1,7.56,3.14l2.12-2.12a13.58,13.58,0,0,0-9.68-4,13.7,13.7,0,0,0,0,27.4,13.72,13.72,0,0,0,13.7-13.7h-3a10.7,10.7,0,1,1-10.7-10.7Z"/><path class="cls-3" d="M254.38,141a10.67,10.67,0,0,1,7.56,3.13l2.12-2.12a13.7,13.7,0,1,0,4,9.69h-3A10.7,10.7,0,1,1,254.38,141Z"/><path class="cls-4" d="M63.12,225.3l.26-.26h-.77Z"/><path class="cls-3" d="M20.31,225.29a96.3,96.3,0,0,1-43.79,10.47v25.48a121.68,121.68,0,0,0,65.2-18.82A122.51,122.51,0,0,1,20.31,225.29Z"/><path class="cls-4" d="M20.8,225h-.74l.25.25Z"/><path class="cls-3" d="M106.92,261.24V235.76a96.46,96.46,0,0,1-43.8-10.46,122.85,122.85,0,0,1-21.4,17.12A121.79,121.79,0,0,0,106.92,261.24Z"/><path class="cls-3" d="M20.8,225l-.49.25a122.51,122.51,0,0,0,21.41,17.13,122.85,122.85,0,0,0,21.4-17.12l-.51-.26Z"/><rect class="cls-3" x="359.5" y="225.04" width="25.48" height="5.94"/><rect class="cls-3" x="203.62" y="225.04" width="25.48" height="36.2"/><rect class="cls-3" x="384.98" y="230.98" width="42.2" height="27.1"/><rect class="cls-3" x="359.5" y="230.98" width="25.48" height="27.1"/><rect class="cls-3" x="-67.16" y="323.57" width="71.33" height="24.97"/><rect class="cls-3" x="29.65" y="323.57" width="71.33" height="24.97"/><rect class="cls-3" x="60.97" y="373.35" width="54.62" height="24.66"/><rect class="cls-3" x="29.65" y="373.35" width="5.84" height="24.66"/><path class="cls-3" d="M-7,373.35c-.29,1.71-.59,3.43-1,5.12A120,120,0,0,1-13.92,398H4.17V373.35Z"/><rect class="cls-3" x="4.17" y="303.32" width="25.48" height="20.25"/><rect class="cls-3" x="4.17" y="348.54" width="25.48" height="24.81"/><rect class="cls-3" x="4.17" y="323.57" width="25.48" height="24.97"/><rect class="cls-3" x="4.17" y="373.35" width="25.48" height="24.66"/><path class="cls-3" d="M1.48,449.47A121.7,121.7,0,0,1-9.91,475.05H57.9a96.77,96.77,0,0,0,3.44-25.58Z"/><path class="cls-3" d="M84.12,475.05a122.52,122.52,0,0,0,2.7-25.58H61.34a96.77,96.77,0,0,1-3.44,25.58,97,97,0,0,1-28.26,46.09A97.22,97.22,0,0,0,51,535.91,122.11,122.11,0,0,0,84.12,475.05Z"/><path class="cls-3" d="M8.24,535.9a96.31,96.31,0,0,1-43.8,10.47v25.48A121.69,121.69,0,0,0,29.65,553,122.51,122.51,0,0,1,8.24,535.9Z"/><path class="cls-3" d="M12,499.66l-21.8,13.2a122.89,122.89,0,0,0,18.09,23,96.94,96.94,0,0,0,21.4-14.76A97.57,97.57,0,0,1,12,499.66Z"/><path class="cls-3" d="M94.85,546.37A96.51,96.51,0,0,1,51,535.91,122.4,122.4,0,0,1,29.65,553a121.79,121.79,0,0,0,65.2,18.82V546.38Z"/><path class="cls-3" d="M29.64,521.14A96.94,96.94,0,0,1,8.24,535.9,122.51,122.51,0,0,0,29.65,553,122.4,122.4,0,0,0,51,535.91,97.22,97.22,0,0,1,29.64,521.14Z"/><rect class="cls-3" x="35.49" y="398.01" width="25.48" height="15.03"/><rect class="cls-3" x="35.49" y="373.35" width="25.48" height="24.66"/><rect class="cls-3" x="60.97" y="413.05" width="54.63" height="27.1"/><rect class="cls-3" x="35.49" y="413.05" width="25.48" height="27.1"/><rect class="cls-3" x="94.85" y="546.38" width="20.73" height="25.47"/><path class="cls-3" d="M-16.95,449.47H1.48q1.69-5.39,2.89-11c.36-1.69.66-3.4,1-5.12H-20.63c-.37,1.72-.76,3.44-1.22,5.12a97.15,97.15,0,0,1-54.58,63.19L-66.24,525A123,123,0,0,0-9.91,475.05h-7Z"/><path class="cls-3" d="M-16.95,449.47v25.58h7A121.7,121.7,0,0,0,1.48,449.47Z"/><polygon class="cls-3" points="186.37 338.72 211.29 338.72 211.29 355.03 427.19 355.03 427.19 330.06 186.37 330.06 186.37 338.72"/><rect class="cls-3" x="226.92" y="377.72" width="33.48" height="24.97"/><rect class="cls-3" x="285.87" y="377.72" width="69.49" height="24.97"/><rect class="cls-3" x="380.84" y="377.72" width="33.48" height="24.97"/><polygon class="cls-3" points="355.37 435.61 285.88 435.61 285.88 460.39 260.4 460.39 260.4 460.57 380.84 460.57 380.84 460.39 355.37 460.39 355.37 435.61"/><rect class="cls-3" x="260.4" y="365.7" width="25.48" height="12.02"/><rect class="cls-3" x="260.4" y="402.69" width="25.48" height="32.92"/><rect class="cls-3" x="260.4" y="377.72" width="25.48" height="24.97"/><rect class="cls-3" x="260.4" y="435.6" width="25.48" height="24.79"/><rect class="cls-3" x="355.36" y="402.69" width="25.48" height="32.92"/><rect class="cls-3" x="355.36" y="365.7" width="25.48" height="12.02"/><rect class="cls-3" x="355.36" y="377.72" width="25.48" height="24.97"/><rect class="cls-3" x="355.36" y="435.6" width="25.48" height="24.79"/><circle class="cls-3" cx="306.78" cy="315.62" r="12.2" transform="translate(-46.6 53.22) rotate(-9.22)"/><path class="cls-3" d="M286.42,499.77,264.62,513a122.83,122.83,0,0,0,26.1,30.39,95.83,95.83,0,0,0,27.17-11.65A97.4,97.4,0,0,1,286.42,499.77Z"/><path class="cls-3" d="M345.09,543.4a122.45,122.45,0,0,1-27.2,17.24A122,122,0,0,0,369.32,572V546.47A96.74,96.74,0,0,1,345.09,543.4Z"/><path class="cls-3" d="M362.06,466.18H289.87v25.57h64a96.5,96.5,0,0,0,6.3-16.7C360.92,472.15,361.54,469.18,362.06,466.18Z"/><rect class="cls-3" x="219.99" y="546.38" width="46.67" height="25.55"/><rect class="cls-3" x="369.32" y="546.47" width="57.87" height="25.45"/><path class="cls-3" d="M186.37,338.72h-.05V445.89q0,68.21-27.71,110.38L179.16,572q32.13-49.49,32.13-126.06V355H186.37Z"/><rect class="cls-3" x="186.37" y="338.72" width="24.92" height="16.31"/><path class="cls-3" d="M386.35,475.05c.62-2.92,1.1-5.89,1.51-8.87H363.22a120.49,120.49,0,0,1-2.73,25.57h-6.66a97.21,97.21,0,0,1-35.94,40,96.41,96.41,0,0,0,27.2,11.7A122.41,122.41,0,0,0,386.35,475.05Z"/><path class="cls-3" d="M266.67,546.37v25.48a121.92,121.92,0,0,0,51.22-11.21,122.82,122.82,0,0,1-27.17-17.29A96.81,96.81,0,0,1,266.67,546.37Z"/><path class="cls-3" d="M317.89,531.7a95.83,95.83,0,0,1-27.17,11.65,122.82,122.82,0,0,0,27.17,17.29,122.45,122.45,0,0,0,27.2-17.24A96.41,96.41,0,0,1,317.89,531.7Z"/><path class="cls-3" d="M363.22,466.18h-1.16c-.52,3-1.14,6-1.93,8.87a96.5,96.5,0,0,1-6.3,16.7h6.66A120.49,120.49,0,0,0,363.22,466.18Z"/><path class="cls-3" d="M263.87,261.19A122.69,122.69,0,0,0,310.69,225H275a95.88,95.88,0,0,1-21.27,12.87Z"/><path class="cls-3" d="M266.67,467.67a15.23,15.23,0,0,1,10.83,4.49l2.12-2.12A18.33,18.33,0,1,0,285,483h-3a15.33,15.33,0,1,1-15.32-15.33Z"/></g></g></svg>